# xmcd
#
# Track frame offsets:
#	150
#	11952
#	25522
#	38843
#	50519
#	63756
#	75882
#	91000
#	103719
#	118245
#	128324
#	139245
#	150737
#	161548
#	175246
#	192216
#	206480
#	220693
#	228163
#	244668
#
# Disc length: 3451 seconds
#
# Revision: 0
# Processed by: cddbd v1.5.2PL0 Copyright (c) Steve Scherf et al.
# Submitted via: dBpowerAMP V4.0
#
DISCID=f50d7914
DTITLE=Roy Orbison - In Dreams - The Greatest Hits
DYEAR=1900
DGENRE=Blues - Pop
TTITLE0=Track01 Only the Lonely
TTITLE1=Track02 Leah
TTITLE2=Track03 In Dreams
TTITLE3=Track04 It's Over
TTITLE4=Track05 Crying
TTITLE5=Track06 Dream Baby
TTITLE6=Track07 Blue Angel
TTITLE7=Track08 Working for the man
TTITLE8=Track09 Candy Man
TTITLE9=Track10 Running Scared
TTITLE10=Track11 Ooby Dooby
TTITLE11=Track12 Mean Woman Blues
TTITLE12=Track13 Lana
TTITLE13=Track14 Blue Bayou
TTITLE14=Track15 Oh, Pretty Woman
TTITLE15=Track16 Hound Dog
TTITLE16=Track17 Penny Arcade
TTITLE17=Track18 Running Scared - reprise
TTITLE18=Track19 Go Go Go (Down the Line)
TTITLE19=Track20 Too Soon to Know
EXTD=
EXTT0=
EXTT1=
EXTT2=
EXTT3=
EXTT4=
EXTT5=
EXTT6=
EXTT7=
EXTT8=
EXTT9=
EXTT10=
EXTT11=
EXTT12=
EXTT13=
EXTT14=
EXTT15=
EXTT16=
EXTT17=
EXTT18=
EXTT19=
PLAYORDER=
